PathFileType	4	(X/Y/Z)	C:\Users\chris\Documents\GitHub\baseballds\vids\pitch7_Sports2D\pitch7_Sports2D_px_person00.trc
DataRate	CameraRate	NumFrames	NumMarkers	Units	OrigDataRate	OrigDataStartFrame	OrigNumFrames
30	30	6	22	m	30	29	236
Frame#	Time	Hip			RHip			RKnee			RAnkle			RBigToe			RSmallToe			RHeel			LHip			LKnee			LAnkle			LBigToe			LSmallToe			LHeel			Neck			Head			Nose			RShoulder			RElbow			RWrist			LShoulder			LElbow			LWrist		
		X1	Y1	Z1	X2	Y2	Z2	X3	Y3	Z3	X4	Y4	Z4	X5	Y5	Z5	X6	Y6	Z6	X7	Y7	Z7	X8	Y8	Z8	X9	Y9	Z9	X10	Y10	Z10	X11	Y11	Z11	X12	Y12	Z12	X13	Y13	Z13	X14	Y14	Z14	X15	Y15	Z15	X16	Y16	Z16	X17	Y17	Z17	X18	Y18	Z18	X19	Y19	Z19	X20	Y20	Z20	X21	Y21	Z21	X22	Y22	Z22
29	0.9666666666666667	701.1199043018795	490.6428888204896	0.0	652.2742913932043	500.3637767643879	0.0	635.4567801348462	696.0010763358713	0.0	610.4897087393305	860.9972949804875	0.0	611.7178574409451	929.3115250288704	0.0	583.8866353420268	924.117805758561	0.0	616.071518208049	883.5926546993322	0.0	752.3716349101642	502.4282953425045	0.0	769.931431789682	692.9100692913418	0.0	789.8308718562491	849.0036140970994	0.0	757.2208888241281	909.5198966587868	0.0	790.4439262073331	908.0474288061495	0.0	793.5017393330966	869.7137691356473	0.0	697.9362640653088	223.66412908939742	0.0	710.3122056449604	101.80241380989955	0.0	761.9624612305784	158.89852977133356	0.0	608.1513426390685	276.5137741185989	0.0	581.24544588246	412.40966750983193	0.0	570.9799153599124	540.4084808781028	0.0	785.5242326037298	266.19281704553634	0.0	823.8479027729824	386.36363482250084	0.0	867.5687887337017	493.9982035499643	0.0
30	1.0	701.085596299446	489.9248413134958	0.0	650.6442714568243	499.2532595279133	0.0	635.8121172337756	696.371720753159	0.0	610.1600911484384	861.1491582950711	0.0	612.9263939306695	926.5272641251404	0.0	584.943481217549	921.4059208524357	0.0	614.8775867330933	883.5688197679464	0.0	752.4690181169235	501.35225405989434	0.0	769.1826151498451	692.7917206109553	0.0	789.2838516023439	848.7800550777854	0.0	757.2943869426649	909.0021427084954	0.0	790.2063570339317	907.1419612029673	0.0	792.3650760848591	869.6409806112217	0.0	697.3308938851521	224.49616036131894	0.0	708.5419863304176	101.78924393062712	0.0	761.9230416955772	158.78586158515415	0.0	608.2671292795061	275.5651903631166	0.0	580.026857203592	411.4842588962815	0.0	567.7385769572132	539.9852149998771	0.0	784.259544222174	266.7200047508323	0.0	823.9058155599814	387.3336438529176	0.0	868.1468925017044	494.8113110882334	0.0
31	1.0333333333333332	701.0471015891801	490.26207885738177	0.0	650.1630066730304	500.1646577439347	0.0	636.0793900641359	697.7476045400699	0.0	610.4157616128157	861.8335678051005	0.0	613.9108973656541	924.3554623238367	0.0	584.8710052626252	919.5554758739587	0.0	614.2535385232483	885.4777949143333	0.0	752.5286166002605	501.9459888497945	0.0	768.8128560112907	694.2415206178225	0.0	788.6459243513937	848.3890741930375	0.0	757.3577695858102	908.0011309381315	0.0	789.9815415671262	906.3271540095832	0.0	792.7059862440683	869.6835967950129	0.0	697.0889135509556	226.00966425204396	0.0	707.5129817963602	102.06884992599825	0.0	761.5532906659588	159.19431699098567	0.0	608.2493005411628	276.04797779108577	0.0	580.3656441499824	412.94153449870134	0.0	567.166127719092	539.9418751030378	0.0	784.272420987438	267.59557580121816	0.0	824.1263391113114	389.67710713527134	0.0	868.7006239526522	495.3322897062946	0.0
32	1.0666666666666667	701.0486305454676	490.3301873413205	0.0	651.3842926671814	500.3068153592488	0.0	636.4632687096675	698.1283976196084	0.0	611.4081694568289	861.7176050949881	0.0	614.6863818956351	923.8172239222288	0.0	584.4265242858014	919.6296485797202	0.0	614.7281010829095	887.0703421849554	0.0	752.1930139017936	501.8247737960827	0.0	769.3345696853639	694.528512119433	0.0	788.6297720465433	848.3212596571395	0.0	758.0597021485579	906.6826416401927	0.0	790.4982675678999	905.8615642848185	0.0	794.2255210134728	870.4640593768627	0.0	697.53766699945	226.70085527707477	0.0	708.9098205357982	101.885275953702	0.0	761.9651733800431	160.53315377704723	0.0	608.0372505546152	277.45341544582936	0.0	581.4930707706876	415.1638298708675	0.0	568.6642311868195	541.6386151846579	0.0	785.4302293904511	268.299869453746	0.0	824.057358202974	391.3976458169916	0.0	869.5078396458431	495.4755448525518	0.0
33	1.1	701.1281677117456	489.8921308762772	0.0	652.9592784869362	498.4043001971779	0.0	637.4793587906287	696.5789332780932	0.0	612.6053167751099	861.1066367791506	0.0	615.9515851997695	924.2509685522999	0.0	585.2812769688223	920.5625903826472	0.0	615.5146502078729	886.889150973094	0.0	751.8862541279804	500.4063990121271	0.0	770.5400801218273	693.1479104905014	0.0	789.426003571793	849.0861803167011	0.0	759.4063397205412	905.8825024018081	0.0	791.8611990306979	905.8521025303158	0.0	795.8108416148116	871.664522291533	0.0	698.8361607343306	226.28112942739557	0.0	711.8832704715276	101.24600526554354	0.0	763.2240525262256	162.22570769006532	0.0	608.1861644938847	278.83560545633213	0.0	582.7776115503887	416.10187191411325	0.0	573.0612568606056	544.0870496913765	0.0	786.7578357593624	268.4880676319225	0.0	824.0822489202003	391.1771066797955	0.0	870.658963291743	495.42499643633164	0.0
34	1.1333333333333333	701.5812523508412	489.7685149390113	0.0	653.9534986387569	496.7214566250444	0.0	638.9279430984527	694.1498115140224	0.0	613.6518211472945	860.4350820657454	0.0	617.9018906683193	924.324028072889	0.0	587.3735309824883	920.5919169093498	0.0	616.3188789468072	885.2096950042642	0.0	752.3324577380986	499.5278641878027	0.0	771.6557179628712	692.4429578662154	0.0	790.6227665963218	849.8688537696744	0.0	760.439833548445	906.2562344868151	0.0	793.3037244791683	906.4498085827092	0.0	797.0153313195244	871.95097506041	0.0	700.7677200881675	225.86174721775365	0.0	714.5845222299698	101.17049987666883	0.0	764.7347632340757	163.65904725906958	0.0	608.8490967390692	279.7603642190638	0.0	584.5019245130073	415.68741040320594	0.0	581.1882748454256	544.4687868729864	0.0	787.7052237762127	268.4924369639953	0.0	824.6051012615799	390.0696963210804	0.0	871.5908495403435	495.47390990308025	0.0
